<?xml version="1.0" encoding="UTF-8"?>
<svg version="1.1" viewBox="0 0 110.42 101.63" xmlns="http://www.w3.org/2000/svg" xmlns:cc="http://creativecommons.org/ns#" xmlns:dc="http://purl.org/dc/elements/1.1/" xmlns:rdf="http://www.w3.org/1999/02/22-rdf-syntax-ns#">
<g transform="translate(-319.79 -481.55)">
<g transform="translate(-7059 -147.3)">
<path d="m7415.9 661.85c1.1487 34.691 21.643-7.1705 0 0z" color="#000000" fill="#a5bfe6" stroke="#3771c8" stroke-width="2"/>
<path d="m7422.1 694.85c0.944 9.2549 1.2629 18.865-0.394 28.067-0.1349 0.74823-1.7692 0.39124-1.486 1.5953 0.4796 2.0393 3.0568 2.9921 4.9182 3.2419 3.0769 0.41282 8.8489 1.4015 10.771-1.9004 3.0719-5.2772-0.1806-27.42 1.6945-32.333" fill="#a5bfe6" stroke="#3771c8" stroke-width="2"/>
<path d="m7436.5 695.41c0.033 9.3029-0.591 18.898-3.1413 27.894-0.2074 0.73153-1.7991 0.21606-1.6351 1.4421 0.2775 2.0764 2.7489 3.2771 4.5768 3.708 3.0218 0.71222 8.6692 2.2615 10.905-0.83615 3.5741-4.9509 2.5063-27.306 4.8535-32.011" fill="#a5bfe6" stroke="#3771c8" stroke-width="2"/>
<path d="m7418.6 685.59c-13.971 20.079 26.445 24.353 33.563 10.455 1.9623-3.8312 0.5058-8.9028 0.3155-12.9" color="#000000" fill="#fff" stroke="#3771c8" stroke-width="2"/>
<g transform="translate(120,10)" stroke="#3771c8" stroke-width="2">
<path d="m7310.4 625.14c-2.9488-15.596-22.958 8.3601-6.6452 7.4003l1.2023-0.54182c2.494-3.3762 5.7297-3.8047 5.4429-6.8585z" color="#000000" fill="#a5bfe6"/>
<path d="m7301.4 627.31c-0.338-2.1993 2.5942-3.3947 2.9837-3.6659" color="#000000" fill="#fff"/>
</g>
<path d="m7425.9 638.49c-4.8479 12.505-8.7843 8.6228-7.2352 16.286 1.1904 5.8879 10.424 10.302 15.382 12.66 24.71 11.753 27.686-16.229 19.378-26.986-2.6322-3.4078-11.315-5.5169-15.258-6.8316-6.091-2.0306-8.8522-0.20948-12.266 4.8718z" fill="#fff" stroke="#3771c8" stroke-width="2"/>
<path d="m7446.3 659.33c-3.3679-0.96144-4.2125-4.4369-3.6427-7.7341 0.3516-2.0354 1.337-4.1189 3.5082-4.7471 13.268-3.8389 4.8669 24.06-2.0296 10.294" color="#000000" fill="#a5bfe6" stroke="#3771c8" stroke-width="2"/>
<path d="m7426.6 644.26c-1.5304 1.5891-0.734 6.2512 1.9704 7.6682 6.1899 3.2433 8.8014-15.439-1.9704-7.6682z" color="#000000" fill="#a5bfe6" stroke="#3771c8" stroke-width="2"/>
<path d="m7434.8 658.88c-2.0196-5.7356 5.5711-1.2235 0 0z" color="#000000" fill="#a5bfe6" stroke="#3771c8" stroke-width="2"/>
<path d="m7441.2 661.1c-0.9735 1.5959-2.9207 1.5856-3.9208 1.7125" color="#000000" fill="#fff" stroke="#3771c8" stroke-width="2"/>
<path d="m7456 643.71c14.045-13.747 16.194 24.371 2.6458 12.589-0.811-0.70513-2.0674-9.2877-2.6458-12.589z" color="#000000" fill="#a5bfe6" stroke="#3771c8" stroke-width="2"/>
<path d="m7399.1 653.7c3.2976 13.121-5.0876 24.237 10.376 22.691 2.0943-0.20944 9.119 0.83623 10.647-0.9464 0.5208-0.6076-1.134-5.4328-1.2393-6.1403-0.5626-3.7774 0.6904-18.816-1.8703-21.226-0.3831-0.36055-15.592 3.9972-17.914 5.622z" color="#000000" fill="#fff" stroke="#3771c8" stroke-width="2"/>
<path d="m7411.8 664.23c3.942 7.4003 10.039 20.059 11.074 25.175" color="#000000" fill="#fff" stroke="#3771c8" stroke-linecap="round" stroke-width="5"/>
<path d="m7398.4 674.71c1.4451-3.3502 3.0176-9.8764-0.4844-6.1516-9.935 7.9203 1.7387 18.005 10.636 10.838 7.1274-5.7416-8.5196-5.5322-10.151-4.6869z" color="#000000" fill="#a5bfe6" stroke="#3771c8" stroke-width="2"/>
<path d="m7445.7 688.64c8.5027-1.0949 20.186-16.716 8.436-24.294-1.2338-0.7957-2.7719-1.0069-3.879 0.17266-2.9002 3.0904-1.8075 9.7391-5.7535 12.217l-0.464 0.82261c-2.4752 4.3378-11.72-0.57602-14.002-0.38749-9.3598-0.22128-15.161 4.493-9.8193 8.3902 6.5283 1.9407 16.98 4.1734 25.482 3.0785z" color="#000000" fill="#a5bfe6" stroke="#3771c8" stroke-width="2"/>
<rect transform="rotate(-4.151)" x="7335.3" y="1189.8" width="2.5173" height="2.5173" fill="#fff" stroke="#3771c8"/>
<rect transform="rotate(-4.151)" x="7334.9" y="1196.1" width="2.5173" height="2.5173" fill="#fff" stroke="#3771c8"/>
<rect transform="rotate(-4.151)" x="7334.4" y="1202.4" width="2.5173" height="2.5173" fill="#fff" stroke="#3771c8"/>
<path d="m7408.2 655.81c2.4754 0.60884 4.8031 0.42701 7.0585 0.22307" color="#000000" fill="#fff" stroke="#3771c8" stroke-width="2"/>
<path d="m7408.4 662.27c3.0422 0.11582 5.0615-0.16452 7.7595 0.92413" color="#000000" fill="#fff" stroke="#3771c8" stroke-width="2"/>
<path d="m7408.4 668.39c3.0029 0.34505 5.0947-0.2214 8.4127 0.19121" color="#000000" fill="#fff" stroke="#3771c8" stroke-width="2"/>
<g transform="translate(120,10)">
<path d="m7327.4 650.6c1.1204-0.0529 1.8664-1.0389 2.4171-2.0583 0.9198-1.7014 0.9169-4.1367 0.3839-5.9586-2.2041-7.7924-11.229 6.763-2.9057 7.9983" fill="#3771c8" stroke="#fff" stroke-width="1.2"/>
<path d="m7327.7 643.64c2.1458 1.115-1.259 3.0463-0.7075 0.62607 0.113-0.4975 0.3015-0.4663 0.6827-0.50437" fill="#fff"/>
</g>
<path d="m7445.3 640.95c2.1339-0.19632 3.0001 1.0454 4.3009 2.3071" color="#000000" fill="#fff" stroke="#3771c8" stroke-width="2"/>
<path d="m7432.2 636.85c2.1777-1.2143 2.5691 0.29738 3.6031 0.95418" color="#000000" fill="#fff" stroke="#3771c8" stroke-width="2"/>
<path d="m7460.4 643.87c5.1198 2.3672 3.1464 9.0629 2.4923 10.799" color="#000000" fill="none" stroke="#3771c8" stroke-width="2"/>
<path d="m7446.3 659.33c-3.3679-0.96144-4.2125-4.4369-3.6427-7.7341 0.3516-2.0354 1.337-4.1189 3.5082-4.7471 13.268-3.8389 4.8669 24.06-2.0296 10.294" color="#000000" fill="none" stroke="#3771c8" stroke-width="2"/>
<path d="m7429.8 652.26c0.7067 0.26434 1.4339-0.14419 2.0494-0.62499 1.0276-0.8023 1.6834-2.3003 1.8457-3.5616-2.3807-5.9993-9.8572 0.87028-5.0474 3.8351" fill="#3771c8" stroke="#fff" stroke-width="1.2"/>
<path d="m7431.6 648.04c1.8779 2.2865-2.9162 2.7937-1.1065 0.35653 0.3717-0.50113 0.5693-0.37487 1.0187-0.23257" fill="#fff"/>
<path d="m7450.4 722.57c13.466 0.75823 24.994-1.7236 37.769 1.9938" fill="none" stroke="#3771c8" stroke-width="2"/>
<path d="m7421.2 721.87c-13.142 3.137-31.476 0.24875-41.414 2.4706" fill="none" stroke="#3771c8" stroke-width="2"/>
<path d="m7426.6 644.26c-1.5304 1.5891-0.734 6.2512 1.9704 7.6682 6.1899 3.2433 8.8014-15.439-1.9704-7.6682z" color="#000000" fill="none" stroke="#3771c8" stroke-width="2"/>
</g>
</g>
<metadata>
<rdf:RDF>
<cc:Work>
<dc:format>image/svg+xml</dc:format>
<dc:type rdf:resource="http://purl.org/dc/dcmitype/StillImage"/>
<cc:license rdf:resource="http://creativecommons.org/licenses/publicdomain/"/>
<dc:publisher>
<cc:Agent rdf:about="http://openclipart.org/">
<dc:title>Openclipart</dc:title>
</cc:Agent>
</dc:publisher>
<dc:title>checklistpanda</dc:title>
<dc:date>2010-06-30T03:45:11</dc:date>
<dc:description>Panda cartoon character</dc:description>
<dc:source>https://openclipart.org/detail/69283/checklistpanda-by-mairin</dc:source>
<dc:creator>
<cc:Agent>
<dc:title>mairin</dc:title>
</cc:Agent>
</dc:creator>
<dc:subject>
<rdf:Bag>
<rdf:li>cartoon</rdf:li>
<rdf:li>cute</rdf:li>
<rdf:li>panda</rdf:li>
</rdf:Bag>
</dc:subject>
</cc:Work>
<cc:License rdf:about="http://creativecommons.org/licenses/publicdomain/">
<cc:permits rdf:resource="http://creativecommons.org/ns#Reproduction"/>
<cc:permits rdf:resource="http://creativecommons.org/ns#Distribution"/>
<cc:permits rdf:resource="http://creativecommons.org/ns#DerivativeWorks"/>
</cc:License>
</rdf:RDF>
</metadata>
</svg>
